<?xml version="1.0"?>
<svg xmlns="http://www.w3.org/2000/svg" xmlns:xlink="http://www.w3.org/1999/xlink" viewBox="0 0 64 64" width="512" height="512"><defs><linearGradient id="New_Gradient_Swatch_3" x1="31.506" y1="64.94" x2="32.707" y2="1.306" gradientUnits="userSpaceOnUse"><stop offset="0" stop-color="#006df0"/><stop offset="1" stop-color="#00e7f0"/></linearGradient><linearGradient id="New_Gradient_Swatch_3-2" x1="16.121" y1="64.649" x2="17.322" y2="1.016" xlink:href="#New_Gradient_Swatch_3"/><linearGradient id="New_Gradient_Swatch_3-3" x1="11.5" y1="64.562" x2="12.701" y2="0.928" xlink:href="#New_Gradient_Swatch_3"/><linearGradient id="New_Gradient_Swatch_3-4" x1="25.141" y1="64.82" x2="26.341" y2="1.186" xlink:href="#New_Gradient_Swatch_3"/><linearGradient id="New_Gradient_Swatch_3-5" x1="4.538" y1="64.431" x2="5.739" y2="0.797" xlink:href="#New_Gradient_Swatch_3"/><linearGradient id="New_Gradient_Swatch_3-6" x1="43.853" y1="65.173" x2="45.054" y2="1.539" xlink:href="#New_Gradient_Swatch_3"/><linearGradient id="New_Gradient_Swatch_3-7" x1="34.974" y1="65.005" x2="36.174" y2="1.371" xlink:href="#New_Gradient_Swatch_3"/><linearGradient id="New_Gradient_Swatch_3-8" x1="58.595" y1="65.451" x2="59.796" y2="1.817" xlink:href="#New_Gradient_Swatch_3"/></defs><g id="Airplane"><path d="M49.84,25.474,54.9,20.417a21.112,21.112,0,0,0,6-12.246l.239-1.949a3.009,3.009,0,0,0-3.354-3.355l-1.952.241A21.1,21.1,0,0,0,43.583,9.1l-5.336,5.336L17.27,9.867A17.055,17.055,0,0,0,9.1,10.1l-1.993.554a1,1,0,0,0-.328,1.766L26.14,26.773c-.668.777-1.327,1.577-1.956,2.414l-8.52,11.242L4.441,40.19H4.42A1,1,0,0,0,3.839,42l6.9,4.926L9.63,48.391a3.04,3.04,0,0,0,.263,3.936l1.785,1.785a3.039,3.039,0,0,0,3.933.257l1.329-1.007,4.346,6.089a1,1,0,0,0,.814.419,1.013,1.013,0,0,0,.3-.045,1,1,0,0,0,.7-.935l.2-10.348,11.513-8.725c.864-.653,1.684-1.333,2.471-2.017L52.29,57.932a1,1,0,0,0,1.764-.323l.51-1.789a17.051,17.051,0,0,0,.234-8.413ZM21.158,55.83l-2.62-3.67,2.732-2.075ZM9.633,12.025a15.065,15.065,0,0,1,7.211-.2l19.722,4.3-7.793,7.793c-.4.4-1.275,1.327-1.3,1.357L9.612,12.031Zm2.309,33.308-4.3-3.074,6.533.139L13.14,43.76ZM33.6,38.223,21.71,47.25l-7.3,5.52a1.021,1.021,0,0,1-1.322-.077l-1.775-1.775a1.025,1.025,0,0,1-.084-1.325l3.6-4.746,2.132-2.8c.01-.013.014-.028.023-.042l8.8-11.611c.82-1.088,1.681-2.133,2.558-3.106,0,0,1.2-1.3,1.76-1.866L45,10.517A19.08,19.08,0,0,1,56.072,5.093s2.034-.248,2.076-.248a1.007,1.007,0,0,1,1,1.133h0l-.239,1.947A19.1,19.1,0,0,1,53.483,19S38.457,34.021,38.349,34.127c-.558.549-1.073,1.033-1.582,1.474C35.782,36.5,34.719,37.381,33.6,38.223Zm19.08,16.892L38.791,36.476c.064-.06,9.377-9.33,9.377-9.33l4.679,20.7A15.056,15.056,0,0,1,52.685,55.115Z" style="fill:url(#New_Gradient_Swatch_3)"/><path d="M17.858,44.728l-4.243,4.243a1,1,0,1,0,1.414,1.414l4.243-4.243a1,1,0,0,0-1.414-1.414Z" style="fill:url(#New_Gradient_Swatch_3-2)"/><path d="M7.213,33.071a1,1,0,0,0,1.414,0l8.536-8.535a1,1,0,0,0-1.414-1.414L7.213,31.657A1,1,0,0,0,7.213,33.071Z" style="fill:url(#New_Gradient_Swatch_3-3)"/><path d="M23.515,9.373a1,1,0,0,0,.707-.293l5.485-5.486A1,1,0,1,0,28.293,2.18L22.808,7.666a1,1,0,0,0,.707,1.707Z" style="fill:url(#New_Gradient_Swatch_3-4)"/><path d="M8.322,19.979a1,1,0,1,0-1.414-1.414L2.373,23.1a1,1,0,1,0,1.414,1.414Z" style="fill:url(#New_Gradient_Swatch_3-5)"/><path d="M46.021,54.749l-5.486,5.485a1,1,0,1,0,1.414,1.414l5.486-5.485a1,1,0,0,0-1.414-1.414Z" style="fill:url(#New_Gradient_Swatch_3-6)"/><path d="M41.707,47.991a1,1,0,0,0-1.414,0L28.636,59.648a1,1,0,1,0,1.414,1.414L41.707,49.405A1,1,0,0,0,41.707,47.991Z" style="fill:url(#New_Gradient_Swatch_3-7)"/><path d="M61.707,41.293a1,1,0,0,0-1.414,0l-4,4a1,1,0,1,0,1.414,1.414l4-4A1,1,0,0,0,61.707,41.293Z" style="fill:url(#New_Gradient_Swatch_3-8)"/></g></svg>
